<?xml version="1.0" encoding="UTF-8" standalone="no"?>
<!-- Created with Inkscape (http://www.inkscape.org/) -->

<svg
   width="64mm"
   height="64mm"
   viewBox="0 0 64 64"
   version="1.1"
   id="svg5"
   inkscape:version="1.2.1 (1:1.2.1+202210291243+9c6d41e410)"
   sodipodi:docname="logo.svg"
   xmlns:inkscape="http://www.inkscape.org/namespaces/inkscape"
   xmlns:sodipodi="http://sodipodi.sourceforge.net/DTD/sodipodi-0.dtd"
   xmlns="http://www.w3.org/2000/svg"
   xmlns:svg="http://www.w3.org/2000/svg">
  <sodipodi:namedview
     id="namedview7"
     pagecolor="#ffffff"
     bordercolor="#000000"
     borderopacity="0.25"
     inkscape:showpageshadow="2"
     inkscape:pageopacity="0.0"
     inkscape:pagecheckerboard="0"
     inkscape:deskcolor="#d1d1d1"
     inkscape:document-units="mm"
     showgrid="true"
     inkscape:zoom="3.659624"
     inkscape:cx="193.18924"
     inkscape:cy="144.41374"
     inkscape:window-width="2486"
     inkscape:window-height="1376"
     inkscape:window-x="0"
     inkscape:window-y="0"
     inkscape:window-maximized="1"
     inkscape:current-layer="layer1">
    <inkscape:grid
       type="xygrid"
       id="grid2487"
       units="mm"
       spacingx="1"
       spacingy="1"
       empspacing="4"
       originx="0"
       originy="0" />
  </sodipodi:namedview>
  <defs
     id="defs2" />
  <g
     inkscape:label="Layer 1"
     inkscape:groupmode="layer"
     id="layer1">
    <path
       id="path2593"
       style="fill:#000000;stroke-width:0.264583"
       d="m 4,4 v 9.999906 h 4.000273 a 2,2 0 0 1 1.999878,1.998844 2,2 0 0 1 -1.997811,2.001428 l -0.0021,-4.000272 v 4.000272 H 4 v 3.999756 h 4.000273 a 2,2 0 0 1 1.999878,1.998845 2,2 0 0 1 -1.997811,2.001428 l -0.0021,-4.000273 v 4.000273 H 4 v 3.999756 h 4.000273 a 2,2 0 0 1 1.999878,1.998844 2,2 0 0 1 -1.997811,2.001428 l -0.0021,-4.000272 v 4.000272 H 4 v 3.999756 h 4.000273 a 2,2 0 0 1 1.999878,1.998845 2,2 0 0 1 -1.997811,2.001428 l -0.0021,-4.000273 v 4.000273 H 4 v 3.999756 h 4.000273 a 2,2 0 0 1 1.999878,1.998844 2,2 0 0 1 -1.997811,2.001428 L 8.00024,46.00002 v 4.000272 H 4 v 9.999907 h 9.999907 v -4.000273 a 2,2 0 0 1 1.998844,-1.999878 2,2 0 0 1 2.001428,1.997811 l -4.000272,0.0021 h 4.000272 v 4.000273 h 3.999756 v -4.000273 a 2,2 0 0 1 1.998845,-1.999878 2,2 0 0 1 2.001428,1.997811 l -4.000273,0.0021 h 4.000273 v 4.000273 h 3.999756 v -4.000273 a 2,2 0 0 1 1.998844,-1.999878 2,2 0 0 1 2.001428,1.997811 l -4.000272,0.0021 h 4.000272 v 4.000273 h 3.999756 v -4.000273 a 2,2 0 0 1 1.998845,-1.999878 2,2 0 0 1 2.001428,1.997811 l -4.000273,0.0021 h 4.000273 v 4.000273 h 3.999756 v -4.000273 a 2,2 0 0 1 1.998844,-1.999878 2,2 0 0 1 2.001428,1.997811 l -4.000272,0.0021 h 4.000272 v 4.000273 h 7.999512 1.000456 0.999939 v -9.999907 h -4.000273 a 2,2 0 0 1 -1.999878,-1.998844 2,2 0 0 1 1.997811,-2.001428 l 0.0021,4.000272 V 46.00002 h 4.00024 v -3.999756 h -4.000273 a 2,2 0 0 1 -1.999878,-1.998845 2,2 0 0 1 1.997811,-2.001428 l 0.0021,4.000273 v -4.000273 h 4.00024 v -3.999756 h -4.000273 a 2,2 0 0 1 -1.999878,-1.998844 2,2 0 0 1 1.997811,-2.001428 l 0.0021,4.000272 v -4.000272 h 4.00024 v -3.999756 h -4.000273 a 2,2 0 0 1 -1.999878,-1.998844 2,2 0 0 1 1.997811,-2.001429 l 0.0021,4.000273 v -4.000273 h 4.00024 v -3.999756 h -4.000273 a 2,2 0 0 1 -1.999878,-1.998844 2,2 0 0 1 1.997811,-2.001428 l 0.0021,4.000272 V 13.999906 H 60.0002 V 4 h -9.999907 v 4.0002721 h -5.16e-4 A 2,2 0 0 1 48.001449,10.00015 2,2 0 0 1 46.000021,8.0023391 l 3.999756,-0.0021 H 46.000021 V 4 H 42.000265 V 8.0002721 A 2,2 0 0 1 40.00142,10.00015 2,2 0 0 1 37.999992,8.0023391 l 4.000273,-0.0021 H 37.999992 V 4 H 34.000236 V 8.0002721 A 2,2 0 0 1 32.001392,10.00015 2,2 0 0 1 29.999964,8.0023391 l 4.000272,-0.0021 H 29.999964 V 4 H 26.000208 V 8.0002721 A 2,2 0 0 1 24.001363,10.00015 2,2 0 0 1 21.999935,8.0023391 l 4.000273,-0.0021 H 21.999935 V 4 H 18.000179 V 8.0002721 A 2,2 0 0 1 16.001335,10.00015 2,2 0 0 1 13.999907,8.0023391 l 4.000272,-0.0021 H 13.999907 V 4 Z m 17.999935,9.999906 8.000029,8.000028 h -3.999756 v 8.000029 h -8.000029 v -8.000029 h -4.000272 z m 20.00033,0 8.000028,8.000028 -8.000028,8.000029 v -3.999756 h -8.000029 v -8.000029 h 8.000029 z m -20.00033,20.000329 v 3.999756 h 8.000029 v 8.000029 h -8.000029 v 4.000272 l -8.000028,-8.000028 z m 20.00033,0 8.000028,8.000029 -8.000028,8.000028 V 46.00002 h -8.000029 v -8.000029 h 8.000029 z" />
  </g>
</svg>
